<mxfile host="Electron" agent="Mozilla/5.0 (Macintosh; Intel Mac OS X 10_15_7) AppleWebKit/537.36 (KHTML, like Gecko) draw.io/26.0.7 Chrome/128.0.6613.186 Electron/32.2.5 Safari/537.36" version="26.0.7">
  <diagram name="GitFlow" id="0yEogH7J0cSncR8ntWDI">
    <mxGraphModel dx="1036" dy="756" grid="1" gridSize="10" guides="1" tooltips="1" connect="1" arrows="1" fold="1" page="1" pageScale="1" pageWidth="827" pageHeight="1169" math="0" shadow="0">
      <root>
        <mxCell id="0" />
        <mxCell id="_xijcJxYSTbFtwmoQC8M-3" value="lines" style="" parent="0" />
        <mxCell id="_xijcJxYSTbFtwmoQC8M-4" value="" style="endArrow=classic;html=1;rounded=0;exitX=1;exitY=0.5;exitDx=0;exitDy=0;strokeColor=#BABABA;" edge="1" parent="_xijcJxYSTbFtwmoQC8M-3">
          <mxGeometry width="50" height="50" relative="1" as="geometry">
            <mxPoint x="120" y="100" as="sourcePoint" />
            <mxPoint x="1040" y="100" as="targetPoint" />
          </mxGeometry>
        </mxCell>
        <mxCell id="_xijcJxYSTbFtwmoQC8M-5" value="" style="endArrow=classic;html=1;rounded=0;exitX=1;exitY=0.5;exitDx=0;exitDy=0;strokeColor=#BABABA;" edge="1" parent="_xijcJxYSTbFtwmoQC8M-3">
          <mxGeometry width="50" height="50" relative="1" as="geometry">
            <mxPoint x="120" y="180" as="sourcePoint" />
            <mxPoint x="1040" y="180" as="targetPoint" />
          </mxGeometry>
        </mxCell>
        <mxCell id="_xijcJxYSTbFtwmoQC8M-6" value="" style="endArrow=classic;html=1;rounded=0;exitX=1;exitY=0.5;exitDx=0;exitDy=0;strokeColor=#BABABA;" edge="1" parent="_xijcJxYSTbFtwmoQC8M-3">
          <mxGeometry width="50" height="50" relative="1" as="geometry">
            <mxPoint x="120" y="260" as="sourcePoint" />
            <mxPoint x="1040" y="260" as="targetPoint" />
          </mxGeometry>
        </mxCell>
        <mxCell id="_xijcJxYSTbFtwmoQC8M-7" value="" style="endArrow=classic;html=1;rounded=0;exitX=1;exitY=0.5;exitDx=0;exitDy=0;strokeColor=#BABABA;" edge="1" parent="_xijcJxYSTbFtwmoQC8M-3">
          <mxGeometry width="50" height="50" relative="1" as="geometry">
            <mxPoint x="120" y="340" as="sourcePoint" />
            <mxPoint x="1040" y="340" as="targetPoint" />
          </mxGeometry>
        </mxCell>
        <mxCell id="_xijcJxYSTbFtwmoQC8M-8" value="" style="endArrow=classic;html=1;rounded=0;exitX=1;exitY=0.5;exitDx=0;exitDy=0;strokeColor=#BABABA;" edge="1" parent="_xijcJxYSTbFtwmoQC8M-3">
          <mxGeometry width="50" height="50" relative="1" as="geometry">
            <mxPoint x="120" y="420" as="sourcePoint" />
            <mxPoint x="1040" y="420" as="targetPoint" />
          </mxGeometry>
        </mxCell>
        <mxCell id="_xijcJxYSTbFtwmoQC8M-9" value="" style="endArrow=classic;html=1;rounded=0;exitX=1;exitY=0.5;exitDx=0;exitDy=0;strokeColor=#BABABA;" edge="1" parent="_xijcJxYSTbFtwmoQC8M-3">
          <mxGeometry width="50" height="50" relative="1" as="geometry">
            <mxPoint x="120" y="500" as="sourcePoint" />
            <mxPoint x="1040" y="500" as="targetPoint" />
          </mxGeometry>
        </mxCell>
        <mxCell id="1" value="main" style="" parent="0" />
        <mxCell id="main_label" value="main" style="rounded=1;whiteSpace=wrap;html=1;fillColor=#dae8fc;strokeColor=#6c8ebf;fontSize=18;fontStyle=1;fontFamily=Helvetica;" parent="1" vertex="1">
          <mxGeometry x="20" y="80" width="100" height="40" as="geometry" />
        </mxCell>
        <mxCell id="hotfix_label" value="hotfix" style="rounded=1;whiteSpace=wrap;html=1;fillColor=#ffe6cc;strokeColor=#d79b00;fontSize=18;fontStyle=1;fontFamily=Helvetica;" parent="1" vertex="1">
          <mxGeometry x="20" y="160" width="100" height="40" as="geometry" />
        </mxCell>
        <mxCell id="release_label" value="release" style="rounded=1;whiteSpace=wrap;html=1;fillColor=#d5e8d4;strokeColor=#82b366;fontSize=18;fontStyle=1;fontFamily=Helvetica;" parent="1" vertex="1">
          <mxGeometry x="20" y="240" width="100" height="40" as="geometry" />
        </mxCell>
        <mxCell id="develop_label" value="develop" style="rounded=1;whiteSpace=wrap;html=1;fillColor=#e1d5e7;strokeColor=#9673a6;fontSize=18;fontStyle=1;fontFamily=Helvetica;" parent="1" vertex="1">
          <mxGeometry x="20" y="320" width="100" height="40" as="geometry" />
        </mxCell>
        <mxCell id="feature_label1" value="feature" style="rounded=1;whiteSpace=wrap;html=1;fillColor=#f5f5f5;strokeColor=#666666;fontSize=18;fontStyle=1;fontColor=#333333;fontFamily=Helvetica;" parent="1" vertex="1">
          <mxGeometry x="20" y="400" width="100" height="40" as="geometry" />
        </mxCell>
        <mxCell id="feature_label2" value="feature" style="rounded=1;whiteSpace=wrap;html=1;fillColor=#f5f5f5;strokeColor=#666666;fontSize=18;fontStyle=1;fontColor=#333333;fontFamily=Helvetica;" parent="1" vertex="1">
          <mxGeometry x="20" y="480" width="100" height="40" as="geometry" />
        </mxCell>
        <mxCell id="_xijcJxYSTbFtwmoQC8M-10" value="v1.0.0" style="ellipse;whiteSpace=wrap;html=1;aspect=fixed;fillColor=#dae8fc;strokeColor=#6c8ebf;" vertex="1" parent="1">
          <mxGeometry x="160" y="80" width="40" height="40" as="geometry" />
        </mxCell>
        <mxCell id="_xijcJxYSTbFtwmoQC8M-12" value="" style="ellipse;whiteSpace=wrap;html=1;aspect=fixed;fillColor=#e1d5e7;strokeColor=#9673a6;" vertex="1" parent="1">
          <mxGeometry x="240" y="320" width="40" height="40" as="geometry" />
        </mxCell>
        <mxCell id="_xijcJxYSTbFtwmoQC8M-13" value="" style="ellipse;whiteSpace=wrap;html=1;aspect=fixed;fillColor=#f5f5f5;strokeColor=#666666;fontColor=#333333;" vertex="1" parent="1">
          <mxGeometry x="320" y="400" width="40" height="40" as="geometry" />
        </mxCell>
        <mxCell id="_xijcJxYSTbFtwmoQC8M-14" value="" style="ellipse;whiteSpace=wrap;html=1;aspect=fixed;fillColor=#f5f5f5;strokeColor=#666666;fontColor=#333333;" vertex="1" parent="1">
          <mxGeometry x="320" y="480" width="40" height="40" as="geometry" />
        </mxCell>
        <mxCell id="_xijcJxYSTbFtwmoQC8M-15" value="" style="endArrow=classic;html=1;rounded=0;" edge="1" parent="1" source="_xijcJxYSTbFtwmoQC8M-10" target="_xijcJxYSTbFtwmoQC8M-12">
          <mxGeometry width="50" height="50" relative="1" as="geometry">
            <mxPoint x="320" y="340" as="sourcePoint" />
            <mxPoint x="370" y="290" as="targetPoint" />
          </mxGeometry>
        </mxCell>
        <mxCell id="_xijcJxYSTbFtwmoQC8M-16" value="" style="endArrow=classic;html=1;rounded=0;" edge="1" parent="1" source="_xijcJxYSTbFtwmoQC8M-12" target="_xijcJxYSTbFtwmoQC8M-13">
          <mxGeometry width="50" height="50" relative="1" as="geometry">
            <mxPoint x="193" y="130" as="sourcePoint" />
            <mxPoint x="227" y="330" as="targetPoint" />
          </mxGeometry>
        </mxCell>
        <mxCell id="_xijcJxYSTbFtwmoQC8M-17" value="" style="endArrow=classic;html=1;rounded=0;" edge="1" parent="1" source="_xijcJxYSTbFtwmoQC8M-12" target="_xijcJxYSTbFtwmoQC8M-14">
          <mxGeometry width="50" height="50" relative="1" as="geometry">
            <mxPoint x="239" y="368" as="sourcePoint" />
            <mxPoint x="261" y="412" as="targetPoint" />
          </mxGeometry>
        </mxCell>
        <mxCell id="_xijcJxYSTbFtwmoQC8M-18" value="" style="ellipse;whiteSpace=wrap;html=1;aspect=fixed;fillColor=#f5f5f5;strokeColor=#666666;fontColor=#333333;" vertex="1" parent="1">
          <mxGeometry x="400" y="400" width="40" height="40" as="geometry" />
        </mxCell>
        <mxCell id="_xijcJxYSTbFtwmoQC8M-19" value="" style="ellipse;whiteSpace=wrap;html=1;aspect=fixed;fillColor=#f5f5f5;strokeColor=#666666;fontColor=#333333;" vertex="1" parent="1">
          <mxGeometry x="480" y="480" width="40" height="40" as="geometry" />
        </mxCell>
        <mxCell id="_xijcJxYSTbFtwmoQC8M-20" value="" style="ellipse;whiteSpace=wrap;html=1;aspect=fixed;fillColor=#f5f5f5;strokeColor=#666666;fontColor=#333333;" vertex="1" parent="1">
          <mxGeometry x="400" y="480" width="40" height="40" as="geometry" />
        </mxCell>
        <mxCell id="_xijcJxYSTbFtwmoQC8M-22" value="" style="ellipse;whiteSpace=wrap;html=1;aspect=fixed;fillColor=#e1d5e7;strokeColor=#9673a6;" vertex="1" parent="1">
          <mxGeometry x="560" y="320" width="40" height="40" as="geometry" />
        </mxCell>
        <mxCell id="_xijcJxYSTbFtwmoQC8M-23" value="" style="endArrow=classic;html=1;rounded=0;" edge="1" parent="1" source="_xijcJxYSTbFtwmoQC8M-13" target="_xijcJxYSTbFtwmoQC8M-18">
          <mxGeometry width="50" height="50" relative="1" as="geometry">
            <mxPoint x="440" y="320" as="sourcePoint" />
            <mxPoint x="490" y="270" as="targetPoint" />
          </mxGeometry>
        </mxCell>
        <mxCell id="_xijcJxYSTbFtwmoQC8M-24" value="" style="endArrow=classic;html=1;rounded=0;" edge="1" parent="1" source="_xijcJxYSTbFtwmoQC8M-14" target="_xijcJxYSTbFtwmoQC8M-20">
          <mxGeometry width="50" height="50" relative="1" as="geometry">
            <mxPoint x="370" y="430" as="sourcePoint" />
            <mxPoint x="410" y="430" as="targetPoint" />
          </mxGeometry>
        </mxCell>
        <mxCell id="_xijcJxYSTbFtwmoQC8M-25" value="" style="endArrow=classic;html=1;rounded=0;" edge="1" parent="1" source="_xijcJxYSTbFtwmoQC8M-20" target="_xijcJxYSTbFtwmoQC8M-19">
          <mxGeometry width="50" height="50" relative="1" as="geometry">
            <mxPoint x="430" y="500" as="sourcePoint" />
            <mxPoint x="410" y="510" as="targetPoint" />
          </mxGeometry>
        </mxCell>
        <mxCell id="_xijcJxYSTbFtwmoQC8M-26" value="" style="endArrow=classic;html=1;rounded=0;" edge="1" parent="1" source="_xijcJxYSTbFtwmoQC8M-19" target="_xijcJxYSTbFtwmoQC8M-22">
          <mxGeometry width="50" height="50" relative="1" as="geometry">
            <mxPoint x="450" y="510" as="sourcePoint" />
            <mxPoint x="490" y="510" as="targetPoint" />
          </mxGeometry>
        </mxCell>
        <mxCell id="_xijcJxYSTbFtwmoQC8M-53" value="&lt;span style=&quot;color: rgb(166, 128, 184); font-size: 12px; font-weight: 700; text-wrap: wrap; background-color: rgb(251, 251, 251);&quot;&gt;PR &amp;amp; squash!&lt;/span&gt;" style="edgeLabel;html=1;align=center;verticalAlign=middle;resizable=0;points=[];" vertex="1" connectable="0" parent="_xijcJxYSTbFtwmoQC8M-26">
          <mxGeometry x="-0.2849" y="1" relative="1" as="geometry">
            <mxPoint x="30" y="-47" as="offset" />
          </mxGeometry>
        </mxCell>
        <mxCell id="_xijcJxYSTbFtwmoQC8M-27" value="" style="endArrow=classic;html=1;rounded=0;entryX=0;entryY=1;entryDx=0;entryDy=0;" edge="1" parent="1" source="_xijcJxYSTbFtwmoQC8M-18" target="_xijcJxYSTbFtwmoQC8M-28">
          <mxGeometry width="50" height="50" relative="1" as="geometry">
            <mxPoint x="519" y="492" as="sourcePoint" />
            <mxPoint x="470" y="360" as="targetPoint" />
          </mxGeometry>
        </mxCell>
        <mxCell id="_xijcJxYSTbFtwmoQC8M-54" value="&lt;span style=&quot;color: rgb(166, 128, 184); font-size: 12px; font-weight: 700; text-wrap: wrap; background-color: rgb(251, 251, 251);&quot;&gt;PR &amp;amp; squash!&lt;/span&gt;" style="edgeLabel;html=1;align=center;verticalAlign=middle;resizable=0;points=[];" vertex="1" connectable="0" parent="_xijcJxYSTbFtwmoQC8M-27">
          <mxGeometry x="-0.2053" relative="1" as="geometry">
            <mxPoint x="-1" y="-5" as="offset" />
          </mxGeometry>
        </mxCell>
        <mxCell id="_xijcJxYSTbFtwmoQC8M-28" value="" style="ellipse;whiteSpace=wrap;html=1;aspect=fixed;fillColor=#e1d5e7;strokeColor=#9673a6;" vertex="1" parent="1">
          <mxGeometry x="480" y="320" width="40" height="40" as="geometry" />
        </mxCell>
        <mxCell id="_xijcJxYSTbFtwmoQC8M-29" value="" style="endArrow=classic;html=1;rounded=0;" edge="1" parent="1" source="_xijcJxYSTbFtwmoQC8M-28" target="_xijcJxYSTbFtwmoQC8M-22">
          <mxGeometry width="50" height="50" relative="1" as="geometry">
            <mxPoint x="519" y="492" as="sourcePoint" />
            <mxPoint x="581" y="368" as="targetPoint" />
          </mxGeometry>
        </mxCell>
        <mxCell id="_xijcJxYSTbFtwmoQC8M-30" value="v1.0.1" style="ellipse;whiteSpace=wrap;html=1;aspect=fixed;fillColor=#d5e8d4;strokeColor=#82b366;" vertex="1" parent="1">
          <mxGeometry x="640" y="240" width="40" height="40" as="geometry" />
        </mxCell>
        <mxCell id="_xijcJxYSTbFtwmoQC8M-31" value="" style="endArrow=classic;html=1;rounded=0;" edge="1" parent="1" source="_xijcJxYSTbFtwmoQC8M-30" target="_xijcJxYSTbFtwmoQC8M-32">
          <mxGeometry width="50" height="50" relative="1" as="geometry">
            <mxPoint x="519" y="492" as="sourcePoint" />
            <mxPoint x="581" y="368" as="targetPoint" />
          </mxGeometry>
        </mxCell>
        <mxCell id="_xijcJxYSTbFtwmoQC8M-32" value="v1.0.1" style="ellipse;whiteSpace=wrap;html=1;aspect=fixed;fillColor=#d5e8d4;strokeColor=#82b366;" vertex="1" parent="1">
          <mxGeometry x="720" y="240" width="40" height="40" as="geometry" />
        </mxCell>
        <mxCell id="_xijcJxYSTbFtwmoQC8M-33" value="" style="endArrow=classic;html=1;rounded=0;" edge="1" parent="1" source="_xijcJxYSTbFtwmoQC8M-22" target="_xijcJxYSTbFtwmoQC8M-30">
          <mxGeometry width="50" height="50" relative="1" as="geometry">
            <mxPoint x="690" y="270" as="sourcePoint" />
            <mxPoint x="730" y="270" as="targetPoint" />
          </mxGeometry>
        </mxCell>
        <mxCell id="_xijcJxYSTbFtwmoQC8M-61" value="&lt;font style=&quot;color: rgb(0, 0, 0); background-color: rgb(255, 153, 109);&quot;&gt;create release branch&lt;br&gt;by GitHub Actions&lt;/font&gt;" style="edgeLabel;html=1;align=center;verticalAlign=middle;resizable=0;points=[];" vertex="1" connectable="0" parent="_xijcJxYSTbFtwmoQC8M-33">
          <mxGeometry x="0.1283" y="1" relative="1" as="geometry">
            <mxPoint y="4" as="offset" />
          </mxGeometry>
        </mxCell>
        <mxCell id="_xijcJxYSTbFtwmoQC8M-34" value="v1.0.1" style="ellipse;whiteSpace=wrap;html=1;aspect=fixed;fillColor=#dae8fc;strokeColor=#6c8ebf;" vertex="1" parent="1">
          <mxGeometry x="800" y="80" width="40" height="40" as="geometry" />
        </mxCell>
        <mxCell id="_xijcJxYSTbFtwmoQC8M-35" value="" style="ellipse;whiteSpace=wrap;html=1;aspect=fixed;fillColor=#ffe6cc;strokeColor=#d79b00;" vertex="1" parent="1">
          <mxGeometry x="880" y="160" width="40" height="40" as="geometry" />
        </mxCell>
        <mxCell id="_xijcJxYSTbFtwmoQC8M-36" value="v1.0.2" style="ellipse;whiteSpace=wrap;html=1;aspect=fixed;fillColor=#dae8fc;strokeColor=#6c8ebf;" vertex="1" parent="1">
          <mxGeometry x="960" y="80" width="40" height="40" as="geometry" />
        </mxCell>
        <mxCell id="_xijcJxYSTbFtwmoQC8M-37" value="" style="ellipse;whiteSpace=wrap;html=1;aspect=fixed;fillColor=#e1d5e7;strokeColor=#9673a6;" vertex="1" parent="1">
          <mxGeometry x="920" y="320" width="40" height="40" as="geometry" />
        </mxCell>
        <mxCell id="_xijcJxYSTbFtwmoQC8M-38" value="" style="endArrow=classic;html=1;rounded=0;" edge="1" parent="1" source="_xijcJxYSTbFtwmoQC8M-32" target="_xijcJxYSTbFtwmoQC8M-34">
          <mxGeometry width="50" height="50" relative="1" as="geometry">
            <mxPoint x="604" y="336" as="sourcePoint" />
            <mxPoint x="656" y="284" as="targetPoint" />
          </mxGeometry>
        </mxCell>
        <mxCell id="_xijcJxYSTbFtwmoQC8M-59" value="&lt;span style=&quot;font-family: Arial, sans-serif; text-align: start; text-wrap: wrap;&quot;&gt;&lt;b&gt;PR &amp;amp; merge!&lt;/b&gt;&lt;/span&gt;" style="edgeLabel;html=1;align=center;verticalAlign=middle;resizable=0;points=[];fontColor=#7EA6E0;" vertex="1" connectable="0" parent="_xijcJxYSTbFtwmoQC8M-38">
          <mxGeometry x="-0.2561" y="1" relative="1" as="geometry">
            <mxPoint as="offset" />
          </mxGeometry>
        </mxCell>
        <mxCell id="_xijcJxYSTbFtwmoQC8M-39" value="" style="endArrow=classic;html=1;rounded=0;" edge="1" parent="1" source="_xijcJxYSTbFtwmoQC8M-34" target="_xijcJxYSTbFtwmoQC8M-35">
          <mxGeometry width="50" height="50" relative="1" as="geometry">
            <mxPoint x="759" y="252" as="sourcePoint" />
            <mxPoint x="821" y="128" as="targetPoint" />
          </mxGeometry>
        </mxCell>
        <mxCell id="_xijcJxYSTbFtwmoQC8M-40" value="" style="endArrow=classic;html=1;rounded=0;" edge="1" parent="1" source="_xijcJxYSTbFtwmoQC8M-35" target="_xijcJxYSTbFtwmoQC8M-37">
          <mxGeometry width="50" height="50" relative="1" as="geometry">
            <mxPoint x="844" y="124" as="sourcePoint" />
            <mxPoint x="896" y="176" as="targetPoint" />
          </mxGeometry>
        </mxCell>
        <mxCell id="_xijcJxYSTbFtwmoQC8M-57" value="&lt;span style=&quot;color: rgb(166, 128, 184); font-family: Arial, sans-serif; font-weight: 700; text-align: start; text-wrap: wrap;&quot;&gt;backport&lt;/span&gt;" style="edgeLabel;html=1;align=center;verticalAlign=middle;resizable=0;points=[];" vertex="1" connectable="0" parent="_xijcJxYSTbFtwmoQC8M-40">
          <mxGeometry x="0.3064" y="-1" relative="1" as="geometry">
            <mxPoint x="6" y="21" as="offset" />
          </mxGeometry>
        </mxCell>
        <mxCell id="_xijcJxYSTbFtwmoQC8M-41" value="" style="endArrow=classic;html=1;rounded=0;" edge="1" parent="1" source="_xijcJxYSTbFtwmoQC8M-35" target="_xijcJxYSTbFtwmoQC8M-36">
          <mxGeometry width="50" height="50" relative="1" as="geometry">
            <mxPoint x="924" y="176" as="sourcePoint" />
            <mxPoint x="976" y="124" as="targetPoint" />
          </mxGeometry>
        </mxCell>
        <mxCell id="_xijcJxYSTbFtwmoQC8M-60" value="&lt;b style=&quot;font-family: Arial, sans-serif; text-align: start; text-wrap: wrap;&quot;&gt;PR &amp;amp;&amp;nbsp;&lt;/b&gt;&lt;div&gt;&lt;b style=&quot;font-family: Arial, sans-serif; text-align: start; text-wrap: wrap;&quot;&gt;merge!&lt;/b&gt;&lt;/div&gt;" style="edgeLabel;html=1;align=center;verticalAlign=middle;resizable=0;points=[];fontColor=#7EA6E0;" vertex="1" connectable="0" parent="_xijcJxYSTbFtwmoQC8M-41">
          <mxGeometry x="0.0387" relative="1" as="geometry">
            <mxPoint as="offset" />
          </mxGeometry>
        </mxCell>
        <mxCell id="_xijcJxYSTbFtwmoQC8M-42" value="" style="endArrow=classic;html=1;rounded=0;" edge="1" parent="1" source="_xijcJxYSTbFtwmoQC8M-32" target="_xijcJxYSTbFtwmoQC8M-43">
          <mxGeometry width="50" height="50" relative="1" as="geometry">
            <mxPoint x="915" y="209" as="sourcePoint" />
            <mxPoint x="790" y="300" as="targetPoint" />
          </mxGeometry>
        </mxCell>
        <mxCell id="_xijcJxYSTbFtwmoQC8M-55" value="&lt;span style=&quot;color: rgb(166, 128, 184); font-family: Arial, sans-serif; font-weight: 700; text-align: start; text-wrap: wrap;&quot;&gt;backport&lt;/span&gt;" style="edgeLabel;html=1;align=center;verticalAlign=middle;resizable=0;points=[];" vertex="1" connectable="0" parent="_xijcJxYSTbFtwmoQC8M-42">
          <mxGeometry x="-0.5495" relative="1" as="geometry">
            <mxPoint x="14" y="14" as="offset" />
          </mxGeometry>
        </mxCell>
        <mxCell id="_xijcJxYSTbFtwmoQC8M-43" value="" style="ellipse;whiteSpace=wrap;html=1;aspect=fixed;fillColor=#e1d5e7;strokeColor=#9673a6;" vertex="1" parent="1">
          <mxGeometry x="800" y="320" width="40" height="40" as="geometry" />
        </mxCell>
        <mxCell id="_xijcJxYSTbFtwmoQC8M-44" value="" style="endArrow=classic;html=1;rounded=0;" edge="1" parent="1" source="_xijcJxYSTbFtwmoQC8M-34" target="_xijcJxYSTbFtwmoQC8M-36">
          <mxGeometry width="50" height="50" relative="1" as="geometry">
            <mxPoint x="924" y="176" as="sourcePoint" />
            <mxPoint x="976" y="124" as="targetPoint" />
          </mxGeometry>
        </mxCell>
        <mxCell id="_xijcJxYSTbFtwmoQC8M-45" value="" style="endArrow=classic;html=1;rounded=0;" edge="1" parent="1" source="_xijcJxYSTbFtwmoQC8M-10" target="_xijcJxYSTbFtwmoQC8M-34">
          <mxGeometry width="50" height="50" relative="1" as="geometry">
            <mxPoint x="850" y="110" as="sourcePoint" />
            <mxPoint x="970" y="110" as="targetPoint" />
          </mxGeometry>
        </mxCell>
        <mxCell id="_xijcJxYSTbFtwmoQC8M-68" value="tag: v1.0.1" style="rounded=1;whiteSpace=wrap;html=1;fillColor=#dae8fc;strokeColor=#6c8ebf;" vertex="1" parent="1">
          <mxGeometry x="730" y="60" width="70" height="20" as="geometry" />
        </mxCell>
        <mxCell id="_xijcJxYSTbFtwmoQC8M-69" value="&lt;span style=&quot;forced-color-adjust: none; color: rgb(0, 0, 0); font-family: Helvetica; font-size: 11px; font-style: normal; font-variant-ligatures: normal; font-variant-caps: normal; letter-spacing: normal; orphans: 2; text-align: center; text-indent: 0px; text-transform: none; widows: 2; word-spacing: 0px; -webkit-text-stroke-width: 0px; white-space: nowrap; text-decoration-thickness: initial; text-decoration-style: initial; text-decoration-color: initial;&quot;&gt;&lt;font style=&quot;forced-color-adjust: none; color: rgb(0, 0, 0); background-color: rgb(255, 153, 109);&quot;&gt;create release &amp;amp; tag&lt;br style=&quot;forced-color-adjust: none;&quot;&gt;by GitHub Actions with release-drafter&lt;/font&gt;&lt;/span&gt;" style="text;whiteSpace=wrap;html=1;" vertex="1" parent="1">
          <mxGeometry x="680" y="10" width="123" height="40" as="geometry" />
        </mxCell>
        <mxCell id="_xijcJxYSTbFtwmoQC8M-70" value="feature/1-create-foo" style="text;html=1;align=center;verticalAlign=middle;whiteSpace=wrap;rounded=0;" vertex="1" parent="1">
          <mxGeometry x="160" y="420" width="120" height="20" as="geometry" />
        </mxCell>
        <mxCell id="_xijcJxYSTbFtwmoQC8M-71" value="feature/2-create-bar" style="text;html=1;align=center;verticalAlign=middle;whiteSpace=wrap;rounded=0;" vertex="1" parent="1">
          <mxGeometry x="160" y="500" width="120" height="20" as="geometry" />
        </mxCell>
        <mxCell id="_xijcJxYSTbFtwmoQC8M-72" value="conventional commits..." style="text;html=1;align=center;verticalAlign=middle;whiteSpace=wrap;rounded=0;fontColor=#757575;" vertex="1" parent="1">
          <mxGeometry x="350" y="520" width="150" height="20" as="geometry" />
        </mxCell>
        <mxCell id="_xijcJxYSTbFtwmoQC8M-73" value="tag: v1.0.2" style="rounded=1;whiteSpace=wrap;html=1;fillColor=#dae8fc;strokeColor=#6c8ebf;" vertex="1" parent="1">
          <mxGeometry x="890" y="60" width="70" height="20" as="geometry" />
        </mxCell>
        <mxCell id="_xijcJxYSTbFtwmoQC8M-74" value="fixed a little" style="text;html=1;align=center;verticalAlign=middle;whiteSpace=wrap;rounded=0;fontColor=#757575;" vertex="1" parent="1">
          <mxGeometry x="660" y="220" width="80" height="20" as="geometry" />
        </mxCell>
        <mxCell id="_xijcJxYSTbFtwmoQC8M-75" value="" style="endArrow=classic;html=1;rounded=0;" edge="1" parent="1" source="_xijcJxYSTbFtwmoQC8M-22" target="_xijcJxYSTbFtwmoQC8M-43">
          <mxGeometry width="50" height="50" relative="1" as="geometry">
            <mxPoint x="210" y="110" as="sourcePoint" />
            <mxPoint x="810" y="110" as="targetPoint" />
          </mxGeometry>
        </mxCell>
        <mxCell id="_xijcJxYSTbFtwmoQC8M-76" value="" style="endArrow=classic;html=1;rounded=0;" edge="1" parent="1" source="_xijcJxYSTbFtwmoQC8M-12" target="_xijcJxYSTbFtwmoQC8M-28">
          <mxGeometry width="50" height="50" relative="1" as="geometry">
            <mxPoint x="610" y="350" as="sourcePoint" />
            <mxPoint x="810" y="350" as="targetPoint" />
          </mxGeometry>
        </mxCell>
        <mxCell id="_xijcJxYSTbFtwmoQC8M-77" value="" style="endArrow=classic;html=1;rounded=0;" edge="1" parent="1" source="_xijcJxYSTbFtwmoQC8M-43" target="_xijcJxYSTbFtwmoQC8M-37">
          <mxGeometry width="50" height="50" relative="1" as="geometry">
            <mxPoint x="610" y="350" as="sourcePoint" />
            <mxPoint x="810" y="350" as="targetPoint" />
          </mxGeometry>
        </mxCell>
        <mxCell id="_xijcJxYSTbFtwmoQC8M-79" value="hotfix/3-fix-baz" style="text;html=1;align=center;verticalAlign=middle;whiteSpace=wrap;rounded=0;" vertex="1" parent="1">
          <mxGeometry x="920" y="180" width="90" height="20" as="geometry" />
        </mxCell>
      </root>
    </mxGraphModel>
  </diagram>
</mxfile>
